# xmcd
#
# Track frame offsets:
#	150
#	10682
#	27122
#	39400
#	54602
#	66822
#	83030
#	95422
#	116980
#	129970
#	147950
#	159332
#	173912
#	189285
#	198505
#	210100
#	223052
#	236530
#	247092
#	263690
#
# Disc length: 3727 seconds
#
# Revision: 0
# Processed by: cddbd v1.5.2PL0 Copyright (c) Steve Scherf et al.
# Submitted via: audiograbber 1.83.01
#
DISCID=0d0e8d14
DTITLE=Sampler - Country - European World of Blugrass 2001
DYEAR=2001
DGENRE=Country
TTITLE0=Nugget - You've Got Me Crying
TTITLE1=Fifty Fingers - Blue Lonesome Wind
TTITLE2=Footprints - Nazaj U Mesto
TTITLE3=Laurie Lewis and Her Bluegrass Pals - Wood Thrush's Song
TTITLE4=Looping Brothers - Tennessee Wiggglers
TTITLE5=Robirohi - Taevamiljonar
TTITLE6=4-Whell Drive - All I Have to Do Is Dream
TTITLE7=Album - Englishman in New York
TTITLE8=Louvat Brothers - St. Annes Reel
TTITLE9=The Gordons - Rake and Ramblin Blade
TTITLE10=Countrybandits - Milenykyi
TTITLE11=Bill Clifton and  the Pick fo th Crop - There's a Little Pine Log Cabin
TTITLE12=Lind aThomas and Don DeLancey - The Old Spinning Wheel
TTITLE13=Petr Brandejs Band - Golden Horn
TTITLE14=Stroatklinkers - Hoavan Van Delfziel
TTITLE15=Roberto Dalla Vecchia - Fisher's Horpipe - Scotland
TTITLE16=TAmmy Fassaert Band - Angel Eyes
TTITLE17=Rawhide - Shut De Do
TTITLE18=Liz Meyer with Nugget - I Miss You
TTITLE19=Tomas Pesko Band - Light in the Storm
EXTD=
EXTT0=
EXTT1=
EXTT2=
EXTT3=
EXTT4=
EXTT5=
EXTT6=
EXTT7=
EXTT8=
EXTT9=
EXTT10=
EXTT11=
EXTT12=
EXTT13=
EXTT14=
EXTT15=
EXTT16=
EXTT17=
EXTT18=
EXTT19=
PLAYORDER=
